<svg width="50" height="16" viewBox="0 0 50 16" fill="none" xmlns="http://www.w3.org/2000/svg">
<g clip-path="url(#clip0_3601_188)">
<path fill-rule="evenodd" clip-rule="evenodd" d="M0 -13.4982H50V27.3138H0V-13.4982Z" fill="white"/>
<path fill-rule="evenodd" clip-rule="evenodd" d="M2.20063 24.1258H2.05771C2.05771 24.0676 2.02191 23.9799 2.02191 23.9505C2.02191 23.9215 2.02191 23.8633 1.91452 23.8633H1.69974V24.1258H1.59235V23.5127H1.91452C2.05771 23.5127 2.16484 23.5421 2.16484 23.6585C2.16484 23.7462 2.12904 23.7756 2.0935 23.8044C2.1293 23.8339 2.16484 23.8631 2.16484 23.9215V24.0382C2.16484 24.0676 2.16484 24.0676 2.20063 24.0676V24.1258ZM2.05771 23.688C2.05771 23.6003 1.98611 23.6003 1.95032 23.6003H1.69974V23.7756H1.91452C1.98611 23.7756 2.05771 23.7462 2.05771 23.688V23.688ZM2.66599 23.8046C2.66599 23.4544 2.30828 23.162 1.84293 23.162C1.41363 23.162 1.05566 23.4544 1.05566 23.8046C1.05566 24.1843 1.41363 24.4767 1.84293 24.4767C2.30802 24.4764 2.66599 24.1843 2.66599 23.8046ZM2.5586 23.8046C2.5586 24.126 2.23669 24.3596 1.84293 24.3596C1.44917 24.3596 1.16305 24.1258 1.16305 23.8046C1.16305 23.5127 1.44943 23.2497 1.84293 23.2497C2.23643 23.2497 2.5586 23.5127 2.5586 23.8046ZM46.6439 12.0048C46.6439 12.8811 45.964 13.2896 44.7472 13.2896H42.4217V12.4132H44.7472C44.9619 12.4132 45.1409 12.3842 45.2128 12.326C45.2841 12.2673 45.3557 12.1797 45.3557 12.063C45.3557 11.9459 45.2844 11.8293 45.2128 11.771C45.1409 11.7124 44.998 11.6834 44.7832 11.6834C43.6743 11.6539 42.2785 11.7124 42.2785 10.4274C42.2785 9.84303 42.7436 9.20044 43.996 9.20044H46.3933V10.0768H44.1747C43.9604 10.0768 43.817 10.0768 43.7096 10.135C43.6022 10.2227 43.5309 10.3103 43.5309 10.4564C43.5309 10.6025 43.6383 10.6902 43.7812 10.7488C43.9246 10.7778 44.0678 10.807 44.2468 10.807H44.8906C45.5705 10.807 46 10.9237 46.2864 11.1284C46.5007 11.3328 46.6439 11.5959 46.6439 12.0048V12.0048ZM41.5984 11.1284C41.312 10.9237 40.8824 10.807 40.2026 10.807H39.5587C39.38 10.807 39.2366 10.7776 39.0936 10.7488C38.9502 10.6902 38.8433 10.6025 38.8433 10.4564C38.8433 10.3103 38.8789 10.2227 39.0221 10.135C39.1294 10.0768 39.2724 10.0768 39.4872 10.0768H41.7058V9.20044H39.3084C38.02 9.20044 37.5905 9.84303 37.5905 10.4274C37.5905 11.7122 38.9863 11.6539 40.0957 11.6834C40.31 11.6834 40.4534 11.7124 40.5247 11.771C40.5961 11.8293 40.6682 11.9459 40.6682 12.063C40.6682 12.1797 40.5963 12.2673 40.5247 12.326C40.4173 12.3842 40.2744 12.4132 40.0596 12.4132H37.7336V13.2896H40.0596C41.2759 13.2896 41.9561 12.8809 41.9561 12.0048C41.9561 11.5959 41.8132 11.3328 41.5984 11.1284V11.1284ZM37.018 12.4428H34.1916V11.6249H36.9466V10.8075H34.1916V10.0478H37.018V9.20086H33.0106V13.2898H37.018V12.4428ZM31.7222 9.40539C31.3284 9.23008 30.8633 9.20065 30.255 9.20065H27.5V13.2896H28.7163V11.8H30.0047C30.4337 11.8 30.6846 11.8295 30.8636 11.9754C31.0783 12.1797 31.0783 12.5303 31.0783 12.7933V13.2896H32.2588V12.5009C32.2588 12.1212 32.2233 11.9459 32.0801 11.7416C31.9727 11.6245 31.7585 11.4786 31.4721 11.391C31.7937 11.3038 32.331 10.9531 32.331 10.3103C32.3307 9.84325 32.1159 9.58028 31.7222 9.40539V9.40539ZM24.9234 9.20065H21.0945L19.5557 10.5443L18.0886 9.20065H13.2579V13.2896H18.0173L19.556 11.9459L21.0231 13.2896H23.3491V11.9171H24.8521C25.8897 11.9171 26.9278 11.6834 26.9278 10.5443C26.9275 9.4344 25.8539 9.20065 24.9234 9.20065ZM30.7559 10.8949C30.5772 10.9531 30.3982 10.9531 30.1834 10.9531L28.7163 10.9826V10.0476H30.1834C30.3982 10.0476 30.613 10.0476 30.7559 10.1352C30.8994 10.1939 31.0062 10.3105 31.0062 10.4858C31.0062 10.6612 30.8994 10.8072 30.7559 10.8949V10.8949ZM24.9234 11.0992H23.3489V10.0476H24.9234C25.353 10.0476 25.6391 10.1939 25.6391 10.5443C25.6391 10.8949 25.3527 11.0992 24.9234 11.0992ZM20.3072 11.2451L22.1678 9.63893V12.9394L20.3072 11.2451ZM17.4087 12.4428H14.4386V11.6249H17.0866V10.8075H14.4386V10.0478H17.4445L18.7685 11.2453L17.4087 12.4428V12.4428ZM43.3158 6.25063H41.5984L39.344 3.18375V6.25063H36.9111L36.4455 5.34507H33.9408L33.4757 6.25063H32.0799C31.5074 6.25063 30.7559 6.13376 30.3269 5.78314C29.9331 5.43273 29.7183 4.96544 29.7183 4.23519C29.7183 3.62181 29.8257 3.06687 30.3621 2.6288C30.7199 2.3074 31.3642 2.16152 32.187 2.16152H33.332V3.03786H32.187C31.758 3.03786 31.5071 3.0963 31.2568 3.27161C31.042 3.44692 30.9346 3.76812 30.9346 4.20618C30.9346 4.64425 31.042 4.96565 31.2568 5.17018C31.4355 5.31606 31.758 5.3745 32.0796 5.3745H32.6165L34.334 2.16173H36.1233L38.1271 6.0171V2.16152H39.988L42.0993 4.99466V2.16152H43.3156V6.25063H43.3158V6.25063ZM29.11 2.16152H27.8937V6.25063H29.11V2.16152V2.16152ZM26.5693 2.33683C26.1755 2.16152 25.7465 2.16152 25.1382 2.16152H22.3826V6.25063H23.5634V4.76091H24.8516C25.2811 4.76091 25.5675 4.79013 25.7462 4.93622C25.961 5.14075 25.9249 5.49138 25.9249 5.72491V6.25063H27.1412V5.43273C27.1412 5.08232 27.1057 4.907 26.927 4.70247C26.8196 4.5856 26.6048 4.43951 26.3545 4.35206C26.6761 4.23519 27.2133 3.914 27.2133 3.2714C27.2136 2.80412 26.9628 2.54115 26.5693 2.33683ZM21.5238 5.40372H18.7327V4.58581H21.488V3.7389H18.7327V3.00865H21.5238V2.16173H17.5161V6.25085H21.5238V5.40372ZM16.6215 2.16152H14.6534L13.1863 4.93622L11.6118 2.16152H9.67952V6.01689L7.63989 2.16152H5.85085L3.70383 6.25063H4.99199L5.45708 5.34507H7.9618L8.4269 6.25063H10.8603V3.03786L12.6135 6.25063H13.6511L15.4046 3.03786V6.25063H16.6212V2.16152H16.6215ZM36.0164 4.46894L35.1931 2.86255L34.3703 4.46894H36.0164ZM25.6391 3.82655C25.4604 3.91421 25.2814 3.91421 25.0308 3.91421H23.5634V3.00886H25.0305C25.2453 3.00886 25.4954 3.00886 25.6388 3.06729C25.7817 3.15495 25.8536 3.27182 25.8536 3.44692C25.8536 3.62202 25.782 3.7679 25.6391 3.82655V3.82655ZM5.88638 4.46894L6.70944 2.86255L7.53251 4.46894H5.88638V4.46894ZM46.3578 -10.6608H3.66777V4.06009L5.13491 1.34382H8.24792L8.67748 2.01564V1.34382H12.3274L13.1505 2.80412L13.9378 1.34382H25.5675C26.1039 1.34382 26.569 1.43148 26.9272 1.66501V1.34382H30.1118V1.66501C30.6483 1.43127 31.3281 1.34382 32.1157 1.34382H36.7316L37.1612 2.01564V1.34382H40.5605L41.0617 2.01564V1.34382H44.3892V7.06854H41.0259L40.3821 6.19241V7.06854H36.1952L35.7301 6.13397H34.692L34.2269 7.06854H32.0443C31.1855 7.06854 30.5411 6.89323 30.1121 6.71813V7.06854H24.9234V5.75413C24.9234 5.57882 24.8876 5.5496 24.7444 5.5496H24.5657V7.06833H14.546V6.33808L14.1883 7.06833H12.0771L11.7194 6.3673V7.06833H7.67569L7.24639 6.13376H6.20855L5.74346 7.06833H3.66777V24.3304H46.3578V13.8445C45.8927 14.0198 45.2483 14.1075 44.6042 14.1075H41.491V13.7568C41.1333 13.9908 40.4889 14.1075 39.8809 14.1075H30.076V12.7933C30.076 12.618 30.0405 12.6179 29.8613 12.6179H29.6825V14.1075H26.4619V12.5595C25.9254 12.7638 25.3169 12.7638 24.7802 12.7638H24.4223V14.1075H20.4862L19.556 13.2311L18.5184 14.1075H12.1842V8.38295H18.6253L19.5557 9.25888L20.5578 8.38295H24.8876C25.3882 8.38295 26.2116 8.44118 26.5693 8.73315V8.38295H30.4337C30.8275 8.38295 31.5792 8.44118 32.0799 8.73315V8.38295H37.9126V8.73336C38.2348 8.49962 38.8433 8.38317 39.3798 8.38317H42.636V8.73336C42.9942 8.52905 43.4948 8.38317 44.1391 8.38317H46.3578V-10.6608V-10.6608Z" fill="#9E9E9E"/>
</g>
<defs>
<clipPath id="clip0_3601_188">
<rect y="0.0513916" width="50" height="15.28" fill="white"/>
</clipPath>
</defs>
</svg>
